<?xml version="1.0" encoding="utf-8"?>
<!-- Generator: Adobe Illustrator 21.0.2, SVG Export Plug-In . SVG Version: 6.00 Build 0)  -->
<svg version="1.1" id="Layer_1" xmlns="http://www.w3.org/2000/svg" xmlns:xlink="http://www.w3.org/1999/xlink" x="0px" y="0px"
	 viewBox="0 0 127.6 127.6" style="enable-background:new 0 0 127.6 127.6;" xml:space="preserve">
<style type="text/css">
	.st0{fill:#3D2AFF;}
	.st1{fill:#5D5E61;}
</style>
<g>
	<ellipse class="st0" cx="32.4" cy="38.9" rx="11.2" ry="11.6"/>
	<path class="st0" d="M38,51.5H26.7c-6.2,0-11.3,5.3-11.3,11.7V75c0,4.9,2.9,9.1,7.1,10.9v9.2h18.9v-8.8c4.6-1.5,8-6,8-11.2V63.3
		C49.4,56.8,44.3,51.5,38,51.5z"/>
</g>
<g>
	<ellipse class="st0" cx="98.1" cy="38.9" rx="11.2" ry="11.6"/>
	<path class="st0" d="M103.7,51.5H92.3c-6.2,0-11.3,5.3-11.3,11.7V75c0,4.9,2.9,9.1,7.1,10.9v9.2H107v-8.8c4.6-1.5,8-6,8-11.2V63.3
		C115,56.8,109.9,51.5,103.7,51.5z"/>
</g>
<ellipse class="st1" cx="65.3" cy="16.7" rx="11.2" ry="11.6"/>
<path class="st1" d="M70.9,29.3H59.5c-6.2,0-11.3,5.3-11.3,11.7v11.7c0,4.9,2.9,9.1,7.1,10.9v9.2h18.9V64c4.6-1.5,8-6,8-11.2V41
	C82.2,34.6,77.1,29.3,70.9,29.3z"/>
<ellipse class="st0" cx="64.3" cy="78.7" rx="2.6" ry="2.8"/>
<ellipse class="st1" cx="64.3" cy="86.2" rx="2.6" ry="2.8"/>
<ellipse class="st0" cx="58.3" cy="86.2" rx="2.6" ry="2.8"/>
<ellipse class="st0" cx="70.3" cy="86.2" rx="2.6" ry="2.8"/>
<ellipse class="st1" cx="58.3" cy="93.8" rx="2.6" ry="2.8"/>
<ellipse class="st0" cx="52.3" cy="93.8" rx="2.6" ry="2.8"/>
<ellipse class="st1" cx="70.3" cy="93.8" rx="2.6" ry="2.8"/>
<ellipse class="st0" cx="76.2" cy="93.8" rx="2.6" ry="2.8"/>
<g>
	<path class="st0" d="M12.7,120.8l8.8-20.4H26l8.8,20.4H30l-7.2-18h1.8l-7.2,18H12.7z M17.1,116.4l1.2-3.6h10.1l1.2,3.6H17.1z"/>
	<path class="st0" d="M34.6,109v-3.5H45v3.5H34.6z M42.5,121c-1.8,0-3.2-0.5-4.2-1.4c-1-0.9-1.5-2.3-1.5-4.2v-13.7h4.4v13.7
		c0,0.7,0.2,1.2,0.5,1.5c0.3,0.4,0.8,0.5,1.4,0.5c0.7,0,1.3-0.2,1.8-0.6l1.2,3.2c-0.5,0.3-1,0.6-1.6,0.7
		C43.9,120.9,43.2,121,42.5,121z"/>
	<path class="st0" d="M55.3,121c-1.6,0-3-0.3-4.3-1c-1.2-0.7-2.2-1.7-3-2.9c-0.7-1.2-1.1-2.6-1.1-4.1c0-1.6,0.4-3,1.1-4.2
		c0.7-1.2,1.7-2.2,3-2.8c1.2-0.7,2.7-1,4.3-1c1.6,0,3,0.3,4.3,1c1.3,0.7,2.2,1.6,2.9,2.8c0.7,1.2,1.1,2.6,1.1,4.2
		c0,1.5-0.4,2.9-1.1,4.1c-0.7,1.2-1.7,2.2-2.9,2.9C58.3,120.7,56.9,121,55.3,121z M55.3,117.3c0.7,0,1.4-0.2,2-0.5
		c0.6-0.3,1-0.8,1.4-1.5c0.3-0.6,0.5-1.4,0.5-2.3c0-0.9-0.2-1.7-0.5-2.3c-0.3-0.6-0.8-1.1-1.4-1.5c-0.6-0.4-1.2-0.5-2-0.5
		c-0.7,0-1.4,0.2-2,0.5c-0.6,0.3-1,0.8-1.4,1.5c-0.3,0.6-0.5,1.4-0.5,2.3c0,0.9,0.2,1.7,0.5,2.3c0.3,0.7,0.8,1.1,1.4,1.5
		C53.9,117.1,54.6,117.3,55.3,117.3z"/>
	<path class="st0" d="M66.5,120.8v-15.6h4.2v4.4l-0.6-1.3c0.4-1.1,1.2-1.9,2.2-2.5c1-0.6,2.2-0.9,3.6-0.9v4.2c-0.2,0-0.4,0-0.5,0
		c-0.2,0-0.3,0-0.5,0c-1.2,0-2.2,0.4-2.9,1.1s-1.1,1.8-1.1,3.3v7.4H66.5z"/>
	<path class="st0" d="M82.2,121c-1.2,0-2.2-0.2-3-0.6c-0.8-0.4-1.5-1-1.9-1.7c-0.5-0.7-0.7-1.5-0.7-2.4c0-0.9,0.2-1.7,0.7-2.4
		c0.4-0.7,1.1-1.2,2.1-1.6s2.2-0.6,3.7-0.6h4v2.6h-3.5c-1,0-1.7,0.2-2.1,0.5c-0.4,0.4-0.6,0.8-0.6,1.3c0,0.6,0.2,1,0.7,1.4
		c0.4,0.3,1,0.5,1.8,0.5c0.7,0,1.4-0.2,2-0.5c0.6-0.4,1-0.9,1.3-1.6l0.7,2.1c-0.3,1-0.9,1.8-1.7,2.3C84.6,120.7,83.5,121,82.2,121z
		 M86.8,120.8v-3.1l-0.3-0.7v-5.5c0-1-0.3-1.7-0.9-2.3c-0.6-0.5-1.4-0.8-2.6-0.8c-0.8,0-1.6,0.1-2.4,0.4c-0.8,0.3-1.4,0.6-2,1.1
		l-1.6-3.2c0.8-0.6,1.8-1.1,3-1.4c1.2-0.3,2.3-0.5,3.5-0.5c2.3,0,4.1,0.6,5.4,1.7c1.3,1.1,1.9,2.9,1.9,5.3v8.9H86.8z"/>
	<path class="st0" d="M104,104.9c1.2,0,2.3,0.2,3.2,0.7c0.9,0.5,1.7,1.2,2.2,2.3c0.5,1,0.8,2.3,0.8,3.9v9h-4.4v-8.3
		c0-1.3-0.3-2.2-0.8-2.8c-0.5-0.6-1.3-0.9-2.3-0.9c-0.7,0-1.3,0.1-1.9,0.4c-0.6,0.3-1,0.8-1.3,1.4c-0.3,0.6-0.5,1.4-0.5,2.4v7.7
		h-4.4v-15.6H99v4.3l-0.8-1.3c0.5-1,1.3-1.9,2.3-2.4C101.6,105.2,102.7,104.9,104,104.9z"/>
</g>
</svg>
