<svg xmlns="http://www.w3.org/2000/svg" width="516.548" height="274.5" viewBox="0 0 516.548 274.5">
  <g id="undraw_account_re_o7id_1_" data-name="undraw_account_re_o7id (1)" transform="translate(0 0)">
    <path id="Path_141" data-name="Path 141" d="M833.429,504.634H545.808a3.347,3.347,0,0,1-3.343-3.343V234.185a3.347,3.347,0,0,1,3.343-3.343H833.429a3.347,3.347,0,0,1,3.343,3.343V501.29a3.347,3.347,0,0,1-3.343,3.343ZM545.808,232.177a2.008,2.008,0,0,0-2,2V501.29a2.008,2.008,0,0,0,2,2H833.429a2.008,2.008,0,0,0,2-2V234.185a2.009,2.009,0,0,0-2-2Z" transform="translate(-320.224 -230.842)" fill="#e6e6e6"/>
    <path id="Path_142" data-name="Path 142" d="M763.457,341.671a2.27,2.27,0,1,0,0,4.539H887.992a2.27,2.27,0,0,0,0-4.539Z" transform="translate(-401.969 -272.263)" fill="#e6e6e6"/>
    <path id="Path_143" data-name="Path 143" d="M763.457,363.417a2.27,2.27,0,1,0,0,4.539h63.578a2.27,2.27,0,0,0,0-4.539Z" transform="translate(-401.969 -280.39)" fill="#e6e6e6"/>
    <path id="Path_142-2" data-name="Path 142" d="M589.65,468.671a2.27,2.27,0,1,0,0,4.539H823.155a2.27,2.27,0,0,0,0-4.539Z" transform="translate(-337.011 -319.728)" fill="#e6e6e6"/>
    <path id="Path_143-2" data-name="Path 143" d="M589.65,490.417a2.27,2.27,0,1,0,0,4.539H762.2a2.27,2.27,0,1,0,0-4.539Z" transform="translate(-337.011 -327.855)" fill="#e6e6e6"/>
    <path id="Path_142-3" data-name="Path 142" d="M589.65,511.671a2.27,2.27,0,1,0,0,4.539H823.155a2.27,2.27,0,1,0,0-4.539Z" transform="translate(-337.011 -335.798)" fill="#e6e6e6"/>
    <path id="Path_143-3" data-name="Path 143" d="M589.65,533.417a2.27,2.27,0,1,0,0,4.539H762.2a2.27,2.27,0,0,0,0-4.539Z" transform="translate(-337.011 -343.926)" fill="#e6e6e6"/>
    <path id="Path_154" data-name="Path 154" d="M604.823,366.754H424.292a3.347,3.347,0,0,1-3.343-3.343V284.185a3.347,3.347,0,0,1,3.343-3.343H604.823a3.347,3.347,0,0,1,3.343,3.343v79.227A3.347,3.347,0,0,1,604.823,366.754Z" transform="translate(-274.809 -249.529)" fill="#ff6f6f"/>
    <path id="Path_154-2" data-name="Path 154" d="M918.722,607.492h-68.43a3.347,3.347,0,0,1-3.343-3.343V593.185a3.347,3.347,0,0,1,3.343-3.343h68.43a3.347,3.347,0,0,1,3.343,3.343v10.964A3.347,3.347,0,0,1,918.722,607.492Z" transform="translate(-434.022 -365.014)" fill="#f98787"/>
    <path id="Path_76" data-name="Path 76" d="M312.285,404.067a6.95,6.95,0,0,1-1.933-9.189,5.735,5.735,0,0,1,.632-.79l.189-58.53,8.7,1.624.382,57.566a6.829,6.829,0,0,1,.777,8.1A5.991,5.991,0,0,1,312.285,404.067Z" transform="translate(-233.103 -269.978)" fill="#ffb8b8"/>
    <path id="Path_77" data-name="Path 77" d="M198.682,402.655h8.969l4.267-34.6H198.681Z" transform="translate(-74.255 -137.557)" fill="#ffb8b8"/>
    <path id="Path_78" data-name="Path 78" d="M382.626,649.467h17.665a11.257,11.257,0,0,1,11.257,11.256v.366H382.627Z" transform="translate(-260.486 -387.298)" fill="#2f2e41"/>
    <path id="Path_79" data-name="Path 79" d="M65.505,402.655h8.97l4.267-34.6H65.5Z" transform="translate(-24.481 -137.557)" fill="#ffb8b8"/>
    <path id="Path_80" data-name="Path 80" d="M249.449,649.467h17.665a11.257,11.257,0,0,1,11.257,11.256v.366H249.45Z" transform="translate(-210.713 -387.298)" fill="#2f2e41"/>
    <path id="Path_81" data-name="Path 81" d="M333.905,548.576l-.752-4.51a3.575,3.575,0,0,1-1.859-1.492c-.807-1.275-.936-3.07-.383-5.336l-6.052-51.108-31.6-32.781L273,502.237l-8.024,38.687v5.59l-16.02,2.057.729-5.268a3.068,3.068,0,0,1-1.455-1.3c-.92-1.532-.908-3.907.037-7.057l.041-.137-.052-.47c-.037-.329.2-31.93,9.6-47.587l9.408-47.535c-.244-.669-1.451-4.567.762-11.153,2.183-6.5,8.289-16.97,24.979-29.943l.057-.044.071-.015c.185-.038,18.593-3.7,28.114,8.752l.064.084v.106c0,.77-.017,18.681-1.433,22.656L342.464,471.2c.44.466,4.389,5.027,2.987,17.018L349.1,529.1c.418.8,4.2,8.3.032,11.277l.746,5.161Z" transform="translate(-210.001 -293.141)" fill="#2f2e41"/>
    <path id="Path_82" data-name="Path 82" d="M317.1,345.2c-4.242,0-9.879-1.5-13.329-8.41l-.068-.136,8.5-18.02a9.88,9.88,0,0,1,18.054,8.02l-7.35,17.619-.128.047A18.381,18.381,0,0,1,317.1,345.2Z" transform="translate(-230.99 -261.534)" fill="#4da3fa"/>
    <path id="Path_83" data-name="Path 83" d="M346.7,381.6l-26.8-12.655L323.59,324l6.716-8.208,1.3-.279a34.245,34.245,0,0,1,17.993,1l.128.043,11.031,23.533c.069.117,8.025,14.163-2.973,21.568Z" transform="translate(-237.045 -262.204)" fill="#4da3fa"/>
    <path id="Path_84" data-name="Path 84" d="M396.837,386.481a6.586,6.586,0,0,0-.924.473l-28.24-12.918-.724-7.509-11.476-.388-.009,13.418a5.009,5.009,0,0,0,3.6,4.812l33.911,9.911a6.573,6.573,0,1,0,3.858-7.8Z" transform="translate(-250.335 -281.408)" fill="#ffb8b8"/>
    <path id="Path_85" data-name="Path 85" d="M360.139,352.061a14.289,14.289,0,0,1-10.335-4.6l-.107-.107,2.355-19.785a9.88,9.88,0,0,1,19.665,1.888l-1.39,19.039-.106.085A17.962,17.962,0,0,1,360.139,352.061Z" transform="translate(-248.179 -263.736)" fill="#4da3fa"/>
    <circle id="Ellipse_18" data-name="Ellipse 18" cx="17.969" cy="17.969" r="17.969" transform="translate(80.417 36.465) rotate(-61.337)" fill="#ffb8b8"/>
    <path id="Path_86" data-name="Path 86" d="M317.157,252.948c-.892-5.186-5.055-9.485-10.014-11.244a21.683,21.683,0,0,0-15.409.839,25.589,25.589,0,0,0-2.369,1.139c-1.775-3.384-6.127-5.346-10.108-5.134-4.809.256-9.152,2.8-13.328,5.2s-8.658,4.784-13.473,4.672c-8.7-.2-15.174-8.268-23.54-10.665A18.826,18.826,0,0,0,208.2,266.486c3.57-6.4,11.953-8.558,19.227-7.687s14.053,4.059,21.179,5.758,15.38,1.625,20.9-3.191c3.131-2.732,4.97-6.637,7.7-9.773a12.7,12.7,0,0,1,7.151-4.334,21.7,21.7,0,0,0-5.873,8.712c-2.151,6.11-1,13.447,3.461,18.144,4.783,5.035,12.29,6.377,19.234,6.3l.145-.148c-2.126-3.182-3.8-7.6-1.463-10.623,2.311-2.989,6.868-2.549,10.407-3.871C315.19,263.924,318.049,258.134,317.157,252.948Z" transform="translate(-194.065 -233.152)" fill="#2f2e41"/>
    <path id="Path_87" data-name="Path 87" d="M359.192,668.411H188.222a.626.626,0,1,1,0-1.253H359.192a.626.626,0,1,1,0,1.253Z" transform="translate(-187.596 -393.91)" fill="#ccc"/>
    <path id="Path_155" data-name="Path 155" d="M556.641,325.212c-.784,0-1.418,1.021-1.417,2.274s.635,2.263,1.417,2.265h66.929c.784,0,1.418-1.021,1.417-2.274s-.635-2.263-1.417-2.265Z" transform="translate(-324.993 -266.111)" fill="#fff"/>
    <path id="Path_156" data-name="Path 156" d="M556.641,346.212c-.784,0-1.418,1.021-1.417,2.274s.635,2.263,1.417,2.265h66.929c.784,0,1.418-1.021,1.417-2.274s-.635-2.263-1.417-2.265Z" transform="translate(-324.993 -273.96)" fill="#fff"/>
    <path id="Path_157" data-name="Path 157" d="M556.641,366.958c-.784,0-1.418,1.021-1.417,2.274s.635,2.263,1.417,2.265h28.8c.784,0,1.418-1.021,1.417-2.274s-.635-2.263-1.417-2.265Z" transform="translate(-324.993 -281.714)" fill="#fff"/>
    <circle id="Ellipse_19" data-name="Ellipse 19" cx="18.162" cy="18.162" r="18.162" transform="translate(179.504 56.108)" fill="#fff"/>
  </g>
</svg>
