<svg xmlns="http://www.w3.org/2000/svg" width="485.385" height="273.434" viewBox="0 0 485.385 273.434">
  <g id="undraw_profile_re_4a55_1_" data-name="undraw_profile_re_4a55 (1)" transform="translate(0)">
    <path id="Path_88" data-name="Path 88" d="M195.054,617.461l-.511-.945c6.849-3.7,15.373-8.314,19.826-15.879,4.389-7.458,4.487-17.584.257-26.428-3.6-7.527-10.213-14.271-19.125-19.5-1.758-1.032-3.6-2.01-5.387-2.956-4.313-2.286-8.773-4.65-12.451-8-5.065-4.619-8.9-12.371-6.041-19.275a12.812,12.812,0,0,1,11.1-7.77l.061,1.073a11.74,11.74,0,0,0-10.176,7.115c-2.654,6.416.987,13.7,5.775,18.064,3.577,3.262,7.976,5.593,12.23,7.848,1.795.951,3.65,1.935,5.428,2.978,9.1,5.34,15.857,12.243,19.55,19.964,4.382,9.162,4.268,19.676-.3,27.437C210.69,609,202.021,613.693,195.054,617.461Z" transform="translate(-158.536 -344.164)" fill="#f1f1f1"/>
    <ellipse id="Ellipse_20" data-name="Ellipse 20" cx="9.398" cy="4.565" rx="9.398" ry="4.565" transform="translate(21.6 169.071)" fill="#f1f1f1"/>
    <ellipse id="Ellipse_21" data-name="Ellipse 21" cx="9.398" cy="4.565" rx="9.398" ry="4.565" transform="translate(29.118 199.145)" fill="#f1f1f1"/>
    <ellipse id="Ellipse_22" data-name="Ellipse 22" cx="9.398" cy="4.565" rx="9.398" ry="4.565" transform="translate(11.933 203.979)" fill="#f1f1f1"/>
    <ellipse id="Ellipse_23" data-name="Ellipse 23" cx="9.398" cy="4.565" rx="9.398" ry="4.565" transform="translate(38.785 229.22)" fill="#f1f1f1"/>
    <ellipse id="Ellipse_24" data-name="Ellipse 24" cx="9.398" cy="4.565" rx="9.398" ry="4.565" transform="translate(57.582 229.22)" fill="#f1f1f1"/>
    <rect id="Rectangle_62" data-name="Rectangle 62" width="302.246" height="143.421" transform="translate(183.138 8.286)" fill="#e6e6e6"/>
    <rect id="Rectangle_75" data-name="Rectangle 75" width="284.961" height="119.661" transform="translate(191.781 20.585)" fill="#fff"/>
    <rect id="Rectangle_80" data-name="Rectangle 80" width="302.246" height="12.84" transform="translate(183.009)" fill="#4da3fa"/>
    <circle id="Ellipse_90" data-name="Ellipse 90" cx="2.38" cy="2.38" r="2.38" transform="translate(190.171 3.559)" fill="#fff"/>
    <circle id="Ellipse_91" data-name="Ellipse 91" cx="2.38" cy="2.38" r="2.38" transform="translate(199.204 3.559)" fill="#fff"/>
    <circle id="Ellipse_92" data-name="Ellipse 92" cx="2.38" cy="2.38" r="2.38" transform="translate(208.238 3.559)" fill="#fff"/>
    <path id="Path_142" data-name="Path 142" d="M741.535,286.635a1.153,1.153,0,0,0,0,2.306H804.8a1.153,1.153,0,0,0,0-2.306Z" transform="translate(-422.299 -237.652)" fill="#e6e6e6"/>
    <path id="Path_143" data-name="Path 143" d="M741.535,299.518a1.153,1.153,0,0,0,0,2.306h32.3a1.153,1.153,0,1,0,0-2.306Z" transform="translate(-422.299 -243.617)" fill="#e6e6e6"/>
    <path id="Path_142-2" data-name="Path 142" d="M738.57,361.871a1.153,1.153,0,0,0,0,2.306H857.194a1.153,1.153,0,1,0,0-2.306Z" transform="translate(-420.926 -272.483)" fill="#e6e6e6"/>
    <path id="Path_143-2" data-name="Path 143" d="M738.57,374.754a1.153,1.153,0,0,0,0,2.306h87.657a1.153,1.153,0,0,0,0-2.306Z" transform="translate(-420.926 -278.448)" fill="#e6e6e6"/>
    <path id="Path_142-3" data-name="Path 142" d="M738.57,387.345a1.153,1.153,0,0,0,0,2.306H857.194a1.153,1.153,0,0,0,0-2.306Z" transform="translate(-420.926 -284.277)" fill="#e6e6e6"/>
    <path id="Path_143-3" data-name="Path 143" d="M738.57,400.227a1.153,1.153,0,0,0,0,2.306h87.657a1.153,1.153,0,0,0,0-2.306Z" transform="translate(-420.926 -290.241)" fill="#e6e6e6"/>
    <circle id="Ellipse_25" data-name="Ellipse 25" cx="10.04" cy="10.04" r="10.04" transform="translate(245.587 73.987)" fill="#a0616a"/>
    <path id="Path_89" data-name="Path 89" d="M607.855,329.172s4.685,1.255,7.111,1.757,2.175-.92,2.175-.92,3.179.418,3.012.084,1.339-2.092-.418-4.1-1.255-3.514-1.255-3.514h-1.506l-.418-.586h-2.343a9.255,9.255,0,0,0-7.191-1.6c-4.6.669-10.043,2.438-10.545,5.2-.068.374-.158.791-.262,1.23-1.258,5.312,1.415,10.282,4.188,14.985.681,1.156,3.978,3.676,3.893,1.947s-2.967-5.612-.959-5.863S608.775,332.435,607.855,329.172Z" transform="translate(-355.408 -253.177)" fill="#2f2e41"/>
    <path id="Path_90" data-name="Path 90" d="M608.527,395.957a35.113,35.113,0,0,1-5.746-.944l.106-2,.879-15.919.008-.122h17.685l2.775,14.658.374,1.978c-.732.285-1.473.553-2.23.789-.008,0-.008.008-.016.008-1.05.325-2.116.61-3.191.846a36.819,36.819,0,0,1-4.33.667,33.318,33.318,0,0,1-3.385.163C610.48,396.079,609.5,396.039,608.527,395.957Z" transform="translate(-358.595 -279.473)" fill="#ff6f6f"/>
    <path id="Path_91" data-name="Path 91" d="M585.581,393.118c-.732-.317-1.441-.659-2.14-1.017l-.3-.155c-.2-.106-.415-.22-.618-.334q-.415-.232-.806-.464c-.252-.147-.513-.3-.765-.456-.016-.008-.024-.016-.041-.016-.879-.562-1.742-1.139-2.572-1.766l-.415-.317-.146-2.344.211-.13,14.2-9.034.2-.122.016-.008,2,.008v7.455c1.131,1.636,1.9,5.062,2.368,9.547.065.643.122,1.3.179,1.986a35.116,35.116,0,0,1-5.746-.944c-.2-.041-.4-.09-.6-.147a33.655,33.655,0,0,1-3.5-1.123c-.35-.13-.692-.269-1.034-.407l-.033-.016C585.89,393.248,585.728,393.183,585.581,393.118Z" transform="translate(-347.019 -279.466)" fill="#2f2e41"/>
    <path id="Path_92" data-name="Path 92" d="M581.111,399.625q-.415-.232-.806-.464c-.252-.147-.513-.3-.765-.456-.016-.008-.024-.016-.041-.016-.879-.562-1.742-1.139-2.572-1.766l-.415-.317c-.065-.057-.13-.106-.2-.163-.521-.4-1.025-.814-1.514-1.253-.024-.016-.041-.041-.065-.057a5.6,5.6,0,0,1,1.636-.871l.578.171,4.118,1.237.024,1.668Z" transform="translate(-345.609 -287.479)" fill="#2f2e41"/>
    <path id="Path_93" data-name="Path 93" d="M642.905,391.3c-.244.13-.488.26-.732.383-.057.033-.106.057-.155.081-.326.163-.643.326-.968.48-.008.008-.025.008-.025.016-.016.008-.041.016-.057.024-.732.35-1.473.675-2.23.977-.732.285-1.473.553-2.23.789-.008,0-.008.008-.016.008-1.05.326-2.116.61-3.191.846a6.712,6.712,0,0,1,.261-1.978l.008-.114.7-11.329-.936-4.859,2.686-.4,14.771,7.952s-1.628,1.628-8.31,5.095C641.891,389.58,642.758,390.6,642.905,391.3Z" transform="translate(-372.724 -279.13)" fill="#2f2e41"/>
    <path id="Path_94" data-name="Path 94" d="M591.133,348.428c-1.058.1-2.132.147-3.207.147-1.042,0-2.076-.041-3.109-.138.065.643.122,1.3.179,1.986.968.081,1.953.122,2.93.122a33.325,33.325,0,0,0,3.385-.163,36.807,36.807,0,0,0,4.33-.667,6.714,6.714,0,0,1,.261-1.978l.008-.114a33.839,33.839,0,0,1-4.777.806Zm30.755-45.674a35.967,35.967,0,1,0-62.154,34.166c.326.407.659.814,1,1.2.033.033.049.057.073.081a34.261,34.261,0,0,0,2.678,2.759c.228.212.464.423.7.627.025.016.041.041.065.057.488.439.993.855,1.514,1.253.074.057.139.106.2.163l.415.317c.83.627,1.693,1.2,2.572,1.766.016,0,.024.008.041.016.252.155.513.309.765.456s.529.309.806.464c.2.114.415.228.618.334l.3.155c.7.358,1.408.7,2.14,1.017.147.065.309.13.456.2l.033.016c.342.138.684.277,1.034.407a33.68,33.68,0,0,0,3.5,1.123c.2.057.4.106.6.146a35.115,35.115,0,0,0,5.746.944c.968.081,1.953.122,2.93.122a33.309,33.309,0,0,0,3.385-.163,36.812,36.812,0,0,0,4.33-.667c1.074-.236,2.141-.521,3.191-.846.008,0,.008-.008.016-.008.757-.236,1.5-.5,2.23-.789.757-.3,1.5-.627,2.23-.977.016-.008.041-.016.057-.024,0-.008.016-.008.025-.016.325-.155.643-.317.968-.48.049-.024.1-.049.155-.081.244-.122.488-.252.732-.383.016-.008.024-.016.041-.024.643-.358,1.278-.732,1.9-1.131.171-.106.342-.212.513-.334.252-.155.5-.326.732-.5.318-.22.635-.448.944-.684a2.522,2.522,0,0,0,.293-.22c.757-.57,1.489-1.172,2.189-1.807a35.936,35.936,0,0,0,10.027-38.658Zm-10.637,36.559a34.813,34.813,0,0,1-2.767,2.344c-.211.163-.432.326-.651.472-.212.163-.423.317-.643.464-.187.13-.374.26-.57.383-.016.016-.041.024-.057.041-.139.1-.285.187-.423.277-.432.269-.879.537-1.319.789-.106.057-.2.122-.309.179-.057.033-.114.065-.179.1-.244.138-.488.26-.732.391-.033.024-.073.033-.106.057a.061.061,0,0,0-.033.016c-.171.09-.342.171-.513.252-.147.073-.285.146-.432.212-.594.285-1.2.553-1.815.806-.643.26-1.294.5-1.953.716-.163.057-.334.122-.5.171-.773.244-1.546.464-2.336.643a33.838,33.838,0,0,1-4.777.806c-1.058.1-2.132.147-3.207.147-1.042,0-2.076-.041-3.109-.138a33.5,33.5,0,0,1-5.461-.96l-.2-.049a31.208,31.208,0,0,1-4.305-1.465c-.073-.033-.155-.057-.22-.09-.081-.033-.155-.057-.22-.09-.081-.033-.155-.065-.228-.1-.61-.269-1.2-.562-1.8-.863l-.277-.146c-.529-.277-1.05-.562-1.563-.879-.179-.1-.366-.212-.545-.326-.2-.122-.407-.252-.6-.383l-.146-.1c-.456-.309-.92-.618-1.359-.952-.309-.228-.61-.448-.912-.684-.2-.146-.391-.3-.578-.464-.122-.09-.244-.2-.366-.3-.163-.138-.325-.277-.488-.423-.252-.2-.488-.431-.717-.643a32.355,32.355,0,0,1-2.6-2.686c-.277-.309-.537-.619-.789-.944a1.967,1.967,0,0,1-.163-.2,33.994,33.994,0,1,1,49.971,3.622Z" transform="translate(-335.065 -233.938)" fill="#3f3d56"/>
    <path id="Path_95" data-name="Path 95" d="M163.435,474.805h6.584l3.132-25.4h-9.717Z" transform="translate(-75.663 -208.056)" fill="#a0616a"/>
    <path id="Path_96" data-name="Path 96" d="M308.406,688.122h12.967a8.264,8.264,0,0,1,8.263,8.263v.269h-21.23Z" transform="translate(-222.313 -423.523)" fill="#2f2e41"/>
    <path id="Path_97" data-name="Path 97" d="M209.435,474.805h6.584l3.132-25.4h-9.717Z" transform="translate(-96.959 -208.056)" fill="#a0616a"/>
    <path id="Path_98" data-name="Path 98" d="M354.406,688.122h12.967a8.264,8.264,0,0,1,8.263,8.263v.269h-21.23Z" transform="translate(-243.609 -423.523)" fill="#2f2e41"/>
    <path id="Path_99" data-name="Path 99" d="M266.211,482.115A5.4,5.4,0,0,0,265.2,473.9l4.575-18.638-9.394,3.347-2.9,17.186a5.43,5.43,0,0,0,8.735,6.324Z" transform="translate(-198.416 -315.718)" fill="#9e616a"/>
    <path id="Path_100" data-name="Path 100" d="M401.4,479.116a5.4,5.4,0,0,1,1.011-8.219l-4.575-18.638,9.394,3.347,2.9,17.186a5.43,5.43,0,0,1-8.735,6.324Z" transform="translate(-263.716 -314.329)" fill="#9e616a"/>
    <path id="Path_101" data-name="Path 101" d="M142.367,278.83l9.126,106.907,13.353-1.217L170.19,301.9l4.757,32.716.953,51.968,12.083-.806,6.71-55.906-1.646-54.143-45.873-4.645Z" transform="translate(-65.91 -125.497)" fill="#2f2e41"/>
    <circle id="Ellipse_26" data-name="Ellipse 26" cx="13.848" cy="13.848" r="13.848" transform="translate(87.713 28.354)" fill="#a0616a"/>
    <path id="Path_102" data-name="Path 102" d="M314.822,242.675s6.462,1.731,9.809,2.423,3-1.269,3-1.269,4.385.577,4.154.115,1.846-2.885-.577-5.655-1.731-4.847-1.731-4.847H327.4l-.577-.808h-3.231s-3.572-3.133-9.919-2.209-13.853,3.363-14.546,7.172c-.094.517-.218,1.09-.361,1.7-1.736,7.327,1.952,14.183,5.777,20.669.94,1.594,5.487,5.07,5.37,2.685s-4.093-7.741-1.323-8.087S316.092,247.176,314.822,242.675Z" transform="translate(-217.646 -211.551)" fill="#2f2e41"/>
    <path id="Path_103" data-name="Path 103" d="M306.177,308.6h24.388l17.244,91.069s-15.034,1.286-23.627,4.508-22.877-7.361-22.877-7.361Z" transform="translate(-219.025 -247.823)" fill="#ff6f6f"/>
    <path id="Path_104" data-name="Path 104" d="M296.273,318.874V308.589l-2.761-.017L273.336,321.4l4.378,70.279s5.181,23.446,13.04,23.2S304.673,331.055,296.273,318.874Z" transform="translate(-206.077 -247.809)" fill="#2f2e41"/>
    <path id="Path_105" data-name="Path 105" d="M272.119,334.4l-6.48-1.941s-4.8,1.4-4.8,6.238-4.134,73.5-4.134,73.5l13.131,1.161,2.817-34.923Z" transform="translate(-198.379 -258.866)" fill="#2f2e41"/>
    <path id="Path_106" data-name="Path 106" d="M351.241,314.823l-1.292-6.7,3.708-.554,13.426,5.37s12.084,88.344,6.713,91.029-9,.6-9,.6-17.664-65.158-14.538-73.965Z" transform="translate(-241.519 -247.346)" fill="#2f2e41"/>
    <path id="Path_107" data-name="Path 107" d="M364.4,318.5l2.291-1s6.725-3.333,10.541,3.4,17.242,81.916,17.242,81.916l-11.047,2.077-8.259-27.058Z" transform="translate(-248.237 -251.562)" fill="#2f2e41"/>
    <path id="Path_108" data-name="Path 108" d="M353.247,703.647H148.633a.537.537,0,0,1,0-1.074H353.247a.537.537,0,1,1,0,1.074Z" transform="translate(-148.096 -430.213)" fill="#cacaca"/>
  </g>
</svg>
